PathFileType	4	(X/Y/Z)	\\Move.snu.ac.kr\motion\Animal\091204_091205_Bird\091205_bird\Project 2\Capture day 2\Session 1\pigeon_013.trc
DataRate	CameraRate	NumFrames	NumMarkers	Units	OrigDataRate	OrigDataStartFrame	OrigNumFrames
240.0	240.0	18	14	mm	240.0	154	3189
Frame#	Time	14MarkersBird:Head			14MarkersBird:C_back			14MarkersBird:Spine			14MarkersBird:L-shoulder			14MarkersBird:L-elbow			14MarkersBird:L-wrist			14MarkersBird:L-hand			14MarkersBird:R-shoulder			14MarkersBird:R-elbow			14MarkersBird:R-Wrist			14MarkersBird:R-hand			14MarkersBird:C_Tail			14MarkersBird:L-Tale			14MarkersBird:R-Tale			
		X1	Y1	Z1	X2	Y2	Z2	X3	Y3	Z3	X4	Y4	Z4	X5	Y5	Z5	X6	Y6	Z6	X7	Y7	Z7	X8	Y8	Z8	X9	Y9	Z9	X10	Y10	Z10	X11	Y11	Z11	X12	Y12	Z12	X13	Y13	Z13	X14	Y14	Z14	

1722	7.171	-39.23869	1454.65857	234.00395	-38.45222	1461.79932	292.64371	-37.38958	1457.64038	349.43286	-59.12827	1457.74573	265.81259	-44.95801	1480.80664	303.14749	-70.31129	1515.50684	281.35907	-73.46976	1532.95276	303.74323	-21.42708	1453.11047	265.95786	-23.62057	1479.72180	293.34888	10.37278	1502.27173	274.42822	30.16710	1522.24084	301.67871	-54.32602	1395.93738	456.56250	-132.50177	1440.17554	388.27374	56.49664	1412.16089	391.42297	
1723	7.175	-40.54389	1450.15405	219.85078	-39.40745	1457.12292	278.49789	-39.23230	1451.91724	335.78491	-60.70552	1452.94751	252.10794	-47.39347	1476.14355	287.79852	-74.16492	1512.59839	268.52057	-72.25083	1534.28931	288.06952	-22.01658	1447.89087	252.24153	-23.28958	1475.30811	277.35553	11.73802	1499.16956	262.04419	27.81004	1526.80725	287.29474	-57.42439	1394.47400	444.45166	-134.80869	1438.01831	372.19547	56.57294	1409.63367	375.73431	
1724	7.179	-41.83873	1445.68909	205.81966	-40.78561	1452.10339	265.25018	-40.78557	1446.12830	322.22617	-62.27246	1448.32922	238.50436	-51.61049	1471.40454	272.08566	-80.25946	1508.02576	255.37843	-76.73280	1532.87012	271.35477	-22.34799	1442.65564	238.60066	-21.52418	1470.65894	261.72998	14.84914	1493.50342	249.32382	30.09079	1525.45874	271.23062	-59.94150	1392.99585	432.23309	-136.60045	1434.96997	357.06516	56.01618	1405.64453	360.60907	
1725	7.183	-43.10582	1441.28357	191.92795	-42.37527	1447.05603	252.33597	-42.09662	1440.38879	308.73965	-63.76914	1443.86804	224.94810	-57.16797	1466.81360	256.41306	-88.03455	1501.53296	241.68390	-86.62084	1528.56726	254.22598	-22.69364	1437.48364	224.94319	-19.05915	1465.44165	246.98152	19.18959	1485.09961	236.13002	36.83231	1517.99500	254.51328	-61.65683	1390.98523	419.70010	-137.99480	1431.17383	342.77261	54.73316	1400.07568	346.31647	
1726	7.188	-44.32996	1436.95361	178.13945	-44.02542	1442.13757	239.33066	-43.25020	1434.83960	295.24304	-65.17157	1439.45142	211.39423	-63.21272	1462.63550	241.26274	-96.86637	1493.06335	227.16835	-100.19510	1521.00623	236.78139	-23.19663	1432.29834	211.16133	-16.40266	1459.36267	233.19133	24.05741	1474.18445	222.22215	46.36053	1505.01013	237.40340	-62.67600	1387.93152	406.69495	-139.19179	1426.69226	328.98792	52.83318	1393.08057	332.78183	
1727	7.192	-45.51271	1432.71277	164.37952	-45.69201	1437.34875	226.12743	-44.33259	1429.62280	281.65057	-66.52226	1434.96167	197.79201	-69.76604	1458.37988	226.48076	-106.03783	1482.66455	211.60355	-115.17117	1509.93054	218.66951	-23.83856	1426.96741	197.18594	-13.70755	1452.24170	219.85500	28.62647	1461.17993	207.31465	56.40068	1487.54175	219.41261	-63.37074	1383.47595	393.09357	-140.38254	1421.52502	315.38882	50.53019	1385.04041	319.62827	
1728	7.196	-46.66496	1428.58105	150.57356	-47.31639	1432.70593	212.70531	-45.43007	1424.88098	267.87646	-67.88729	1430.34448	184.07835	-77.55157	1452.76135	211.24718	-114.71631	1470.43359	194.78366	-129.50404	1495.45764	199.42818	-24.58466	1421.47473	183.00159	-10.92005	1444.08032	206.11794	32.04243	1446.53894	191.13756	64.83311	1466.67493	199.92642	-64.14687	1377.57520	378.82861	-141.65022	1415.75525	301.77264	48.02320	1376.49634	306.38937	
1729	7.200	-47.79614	1424.57727	136.68167	-48.81641	1428.28125	199.02429	-46.62766	1420.75403	253.83603	-69.28222	1425.62476	170.20476	-84.81302	1445.52063	195.36644	-122.04411	1456.56580	176.64447	-141.69162	1477.99646	178.78192	-25.46337	1415.98645	168.63586	-8.09517	1435.08484	191.29128	33.52717	1430.73547	173.57312	70.03034	1443.42419	178.69260	-65.24012	1370.53906	363.89935	-142.95586	1409.62524	288.05386	45.44528	1368.03296	292.77371	
1730	7.204	-48.91978	1420.68616	122.69360	-50.13697	1424.12378	185.10310	-47.97915	1417.34436	239.48064	-70.65023	1420.88794	156.15823	-90.22939	1437.23926	178.27834	-127.26440	1441.46777	157.42026	-150.65256	1458.14160	156.78810	-26.49057	1410.73218	154.13951	-5.61504	1425.52393	175.23839	32.48537	1414.34961	154.81328	70.90884	1418.87488	155.93845	-66.64932	1362.90625	348.36429	-144.20015	1403.48816	274.24835	42.89096	1360.20093	278.79913	
1731	7.208	-50.05489	1416.84460	108.60090	-51.23305	1420.25952	170.97412	-49.36140	1414.60376	225.07054	-71.92130	1416.27148	141.91721	-94.86813	1428.61438	161.37953	-129.83392	1425.83167	137.62843	-155.57954	1436.71069	133.91396	-27.60231	1405.85742	139.56683	-4.05364	1415.65845	158.32095	28.62020	1398.14429	135.38159	66.91640	1394.30774	132.29346	-68.19824	1355.28125	332.36743	-145.29056	1397.66333	260.44043	40.46728	1353.46533	264.71466	
1732	7.213	-51.21099	1412.96704	94.38424	-52.09529	1416.69543	156.66798	-50.51089	1412.22180	211.04774	-73.05073	1411.92493	127.43335	-98.52682	1420.06702	144.87814	-129.55409	1410.56824	117.88795	-155.97774	1414.84668	110.96661	-28.69861	1401.39917	124.95442	-3.80230	1405.86902	141.11476	22.07285	1383.04907	115.95527	58.07166	1371.18152	108.60552	-69.67839	1348.17981	316.14563	-146.17545	1392.28174	246.71709	38.29435	1348.09180	250.81868	
1733	7.217	-52.37513	1408.98071	80.02184	-52.77976	1413.39673	142.20271	-51.53004	1409.70764	196.81886	-74.01582	1407.91736	112.69581	-101.05814	1411.98364	128.66409	-126.65155	1396.69788	98.69327	-151.87473	1394.02478	88.83957	-29.72520	1397.34766	110.29219	-4.81084	1396.67700	124.20270	13.51142	1370.05530	97.09952	45.06851	1351.01477	85.72438	-70.96899	1341.87976	299.94464	-146.86020	1387.20654	233.07724	36.41819	1343.98010	237.28529	
1734	7.221	-53.51950	1404.83826	65.50140	-53.38668	1410.26648	127.58789	-52.48388	1406.88989	182.25542	-74.82658	1404.19690	97.76266	-102.63212	1404.67834	112.88399	-121.81813	1385.21265	80.34380	-143.98097	1375.87976	68.20504	-30.69447	1393.65955	95.53749	-6.62090	1388.58862	108.03758	4.06355	1360.04614	79.11059	29.34885	1335.14343	64.27882	-72.08740	1336.36218	283.91760	-147.40799	1382.08118	219.38547	34.73474	1340.61414	224.06935	
1735	7.225	-54.61968	1400.52124	50.82042	-53.99052	1407.17480	112.80077	-53.42050	1403.68079	167.43172	-75.53322	1400.64624	82.69389	-103.49681	1398.34766	97.76862	-116.14783	1376.89331	63.00221	-133.68581	1361.88977	49.34344	-31.63123	1390.22559	80.63933	-8.60779	1381.91870	92.82606	-4.90075	1353.58142	62.01613	13.01025	1324.39758	44.54242	-73.15968	1331.44873	268.09821	-147.90843	1376.55847	205.44455	33.02009	1337.23743	210.94212	
1736	7.229	-55.65902	1396.01868	35.96851	-54.61625	1403.97217	97.77075	-54.37194	1400.05798	152.36496	-76.19786	1397.12988	67.48987	-103.94732	1393.16248	83.44282	-110.90466	1372.11279	46.71163	-122.91693	1352.96350	32.19498	-32.53428	1386.87219	65.56418	-10.24526	1376.77148	78.51437	-12.06322	1350.70081	45.68402	-1.56941	1318.79114	26.49795	-74.32069	1327.02051	252.46594	-148.42810	1370.55408	191.11917	31.02513	1333.14368	197.61407	
1737	7.233	-56.61699	1391.32642	20.92047	-55.28029	1400.48035	82.41933	-55.32828	1396.09436	137.04604	-76.86169	1393.48694	52.12203	-104.20007	1389.31531	69.88618	-107.16225	1370.70581	31.41248	-113.81993	1349.06335	16.54877	-33.38803	1383.40173	50.31397	-11.24870	1373.16077	64.92805	-16.50035	1350.87122	30.02414	-12.34902	1317.42810	10.05550	-75.63834	1323.05078	236.98735	-148.98531	1364.32031	176.39494	28.56180	1327.92163	183.86246	
1738	7.238	-57.46293	1386.47217	5.65149	-56.00598	1396.52148	66.71366	-56.27096	1391.90454	121.49097	-77.52895	1389.56519	36.58957	-104.25967	1386.89209	57.06142	-105.48138	1372.03064	17.01616	-108.20564	1349.16675	2.19685	-34.18453	1379.65295	34.92292	-11.64734	1371.08447	51.93858	-17.94074	1353.17786	15.07843	-18.20721	1318.79932	-4.76054	-77.11531	1319.40601	221.56271	-149.58040	1358.32776	161.35210	25.57203	1321.60974	169.61182	
1739	7.242	-58.16349	1381.50415	-9.83814	-56.78359	1391.99524	50.68736	-57.19394	1387.56152	105.73925	-78.17311	1385.28674	20.92080	-103.83299	1385.80640	44.80498	-105.74274	1375.25403	3.43378	-106.97564	1351.76843	-10.91788	-34.94106	1375.56360	19.45005	-11.84493	1370.49292	39.48129	-16.77094	1356.70020	0.93564	-19.12821	1321.39978	-17.75723	-78.73633	1315.74609	206.00804	-150.24829	1353.05432	146.07608	22.20148	1314.71667	154.94234	
